<svg width="34" height="34" viewBox="0 0 34 34" fill="none" xmlns="http://www.w3.org/2000/svg">
<circle cx="17" cy="16.9999" r="1" transform="rotate(135.586 17 16.9999)" stroke="white" stroke-width="2" stroke-linecap="round" stroke-linejoin="round"/>
<path d="M20.5715 13.5008C18.639 11.5283 15.4733 11.4959 13.5008 13.4285C11.5284 15.361 11.496 18.5267 13.4285 20.4992C15.3611 22.4716 18.5268 22.504 20.4992 20.5715" stroke="white" stroke-width="2" stroke-linecap="round" stroke-linejoin="round"/>
<path d="M23.2986 23.4287C20.4668 26.2029 16.1533 26.7976 12.6765 24.8931C9.19972 22.9886 7.37847 19.0335 8.19166 15.1535C9.00485 11.2736 12.261 8.38264 16.2099 8.0345C18.1675 7.8842 22.5361 8.52397 24.3502 12.2855" stroke="white" stroke-width="2" stroke-linecap="round" stroke-linejoin="round"/>
<path d="M26.9311 12.114L21.2868 14.7957C19.1814 15.796 18.9713 18.7104 20.9114 20.0024L25.9398 23.3509" stroke="white" stroke-width="2"/>
<path d="M25.7577 8.79626L25.0279 9.47992L25.7577 8.79626ZM8.24233 25.2039L7.51253 25.8876L8.24233 25.2039ZM8.24233 25.2039L7.51253 25.8876L8.24233 25.2039ZM25.7577 8.79626L25.0279 9.47992L25.7577 8.79626ZM9.47985 8.97221C13.9135 4.81893 20.8746 5.04624 25.0279 9.47992L26.4875 8.11261C21.5791 2.87281 13.3523 2.60417 8.11254 7.51259L9.47985 8.97221ZM8.97214 24.5203C4.81886 20.0866 5.04617 13.1255 9.47985 8.97221L8.11254 7.51259C2.87274 12.421 2.6041 20.6478 7.51253 25.8876L8.97214 24.5203ZM24.5202 25.028C20.0865 29.1813 13.1254 28.9539 8.97214 24.5203L7.51253 25.8876C12.4209 31.1274 20.6477 31.396 25.8875 26.4876L24.5202 25.028ZM25.8875 26.4876C31.1273 21.5792 31.3959 13.3524 26.4875 8.11261L25.0279 9.47992C29.1812 13.9136 28.9539 20.8747 24.5202 25.028L25.8875 26.4876Z" fill="white"/>
</svg>
