<svg width="24" height="24" viewBox="0 0 24 24" fill="none" xmlns="http://www.w3.org/2000/svg">
<path d="M4.03003 12.815V20.015C4.03003 21.1196 4.92546 22.015 6.03003 22.015H18.03C19.1346 22.015 20.03 21.1196 20.03 20.015V12.815" stroke="#F5F4E9" stroke-width="2" stroke-linecap="round" stroke-linejoin="round"/>
<path fill-rule="evenodd" clip-rule="evenodd" d="M11.1917 18C13.9097 18 15.7814 16.356 16 12V11H14.2454C10.3114 11 9.00612 13 9 15.5C9 16 9 17 9.87424 18H11.1856H11.1917Z" stroke="#F5F4E9" stroke-width="2" stroke-linecap="round" stroke-linejoin="round"/>
<path d="M9 19C9.28571 16.75 10.4286 15 13 14" stroke="#F5F4E9" stroke-width="2" stroke-linecap="round" stroke-linejoin="round"/>
<path d="M1.33104 11.2567C0.920525 11.6262 0.887247 12.2585 1.25671 12.669C1.62616 13.0795 2.25845 13.1128 2.66896 12.7433L1.33104 11.2567ZM12 3L12.669 2.25671L12 1.65464L11.331 2.25671L12 3ZM21.331 12.7433C21.7415 13.1128 22.3738 13.0795 22.7433 12.669C23.1128 12.2585 23.0795 11.6262 22.669 11.2567L21.331 12.7433ZM2.66896 12.7433L12.669 3.74329L11.331 2.25671L1.33104 11.2567L2.66896 12.7433ZM11.331 3.74329L21.331 12.7433L22.669 11.2567L12.669 2.25671L11.331 3.74329Z" fill="#F5F4E9"/>
</svg>
